<svg
   width="94.696846"
   height="42.869598"
   viewBox="0 0 25.055207 11.342581"
   version="1.1"
   id="svg1"
   xmlns="http://www.w3.org/2000/svg"
   xmlns:svg="http://www.w3.org/2000/svg">
  <defs
     id="defs1" />
  <g
     id="layer1"
     transform="translate(-4.4057297,-11.262042)">
    <path
       id="path20"
       style="fill:#ffffff;fill-rule:nonzero;stroke:none;stroke-width:0.0798551;stroke-dasharray:none;stroke-opacity:1"
       d="m 10.207676,11.262047 c -0.2151939,0.0069 -1.4390739,0.804968 -3.1255232,2.10635 -0.3823611,0.295025 -0.8022385,0.628624 -1.2201774,0.987005 -0.2854549,0.244276 -0.5910162,0.515256 -0.8773204,0.819574 -0.1642851,0.168891 -0.3445057,0.37839 -0.4810059,0.651557 -0.091807,0.153839 -0.1326931,0.383161 -0.06235,0.656352 0.098346,0.224723 0.2385755,0.369317 0.3719451,0.443028 0.00758,0.005 0.015142,0.0099 0.022693,0.01478 0.1547003,0.09951 0.3038137,0.169891 0.4321101,0.230131 0.3749635,0.180793 0.7175133,0.350817 1.0275176,0.555559 0.4406125,0.288871 0.8177336,0.636248 1.1276499,1.005799 0.4673781,0.55498 0.8573253,1.22433 1.1556453,1.739473 0.762529,1.320524 1.224248,2.176405 1.322493,2.131266 0.09824,-0.04514 -0.179725,-0.969863 -0.835366,-2.383895 C 8.8095501,19.66383 8.4538881,18.952153 7.9588088,18.303697 7.6253073,17.868966 7.2075136,17.458676 6.7064625,17.114831 6.3505947,16.872172 5.9778159,16.678708 5.5953069,16.493532 c -0.086862,-0.0431 -0.1647047,-0.08166 -0.2365652,-0.120135 0.4605339,0.04024 1.0617084,0.07998 1.8268548,0.117288 1.6609706,0.08098 4.1845625,0.158827 6.9024085,0.151445 1.004108,-0.0027 2.066291,-0.01711 3.150751,-0.05408 0.372506,-0.0127 0.74072,-0.02782 1.105229,-0.04558 1.266694,-0.06161 2.436299,-0.150657 3.57401,-0.299263 1.946334,-0.252511 3.474267,-0.656522 4.766619,-1.222947 1.901194,-0.837312 2.825799,-1.694814 2.774283,-1.776438 -0.05152,-0.08162 -1.098495,0.636593 -2.961483,1.310055 -1.287065,0.468386 -2.741198,0.784567 -4.662394,0.992659 -1.121841,0.120512 -2.26415,0.190809 -3.525738,0.246118 -0.36146,0.01581 -0.726439,0.02989 -1.096221,0.0425 -1.073135,0.03658 -2.135292,0.05899 -3.132504,0.07662 -2.763382,0.0488 -5.1718779,0.06817 -6.8896574,0.112726 -0.8442988,0.0219 -1.516533,0.04925 -1.9871896,0.08173 0.070577,-0.138053 0.1926174,-0.276878 0.3252325,-0.428795 0.2502368,-0.27692 0.5333975,-0.540175 0.8049515,-0.789628 0.3909508,-0.358511 0.7970585,-0.712538 1.154554,-1.02358 1.7004921,-1.479399 2.832158,-2.486405 2.748665,-2.592931 -0.0052,-0.0067 -0.01509,-0.0097 -0.02944,-0.0092 z" />
  </g>
</svg>
